# Blender 3.4.1
# www.blender.org
mtllib T_Intersect.mtl
o Cube.002
v 0.030000 0.000002 0.030000
v -0.030000 -0.000000 0.030000
v -1.000000 0.000002 0.030000
v -0.030000 60.000000 0.030010
v 0.030000 60.000000 0.030010
v -0.030000 0.000000 -0.030000
v -1.000000 60.000000 0.030010
v -0.030000 60.000000 -0.029990
v 1.000000 -0.000000 0.030000
v -0.030000 0.000002 0.030000
v -1.000000 0.000002 -0.030000
v 1.000000 60.000000 0.030010
v -0.030000 60.000000 0.030010
v 1.000000 0.000000 -0.030000
v -1.000000 60.000000 -0.029990
v 1.000000 60.000000 -0.029990
v 0.030000 0.000002 -1.000000
v 0.030000 60.000000 -0.999990
v -0.030000 0.000002 -1.000000
v 0.030000 0.000002 -0.030000
v -0.030000 60.000000 -0.999990
v 0.030000 60.000000 -0.029990
v -0.030000 60.000000 -0.029990
v -0.030000 0.000002 0.026505
v -0.030000 0.000002 -0.030000
v 0.026505 60.000000 -0.029990
v 0.026517 60.000000 -0.029787
v -0.030000 0.000002 0.030000
v -0.030000 0.000002 0.026505
v -0.030000 0.000002 -0.030000
v 0.030000 0.000002 -0.030000
v 0.030000 0.000002 0.030000
v -0.030000 0.000002 0.030000
v 0.030000 60.000000 -0.029990
v 0.030000 60.000000 0.030010
v 0.030000 60.000000 -0.029990
v 0.026505 60.000000 -0.029990
vn -0.0000 -0.0000 1.0000
vn -1.0000 -0.0000 -0.0000
vn -0.0000 -0.0000 -1.0000
vn 1.0000 -0.0000 -0.0000
vn -0.0000 -1.0000 -0.0000
vn -0.0000 1.0000 -0.0000
vn -0.0000 0.0205 0.9998
vn -0.0000 1.0000 -0.0001
vn -0.0000 0.0033 -1.0000
vn -0.0000 0.9998 0.0210
vn -1.0000 0.0002 -0.0000
vt 0.375000 0.000000
vt 0.125000 0.750000
vt 0.375000 0.750000
vt 0.375000 0.000000
vt 0.375000 1.000000
vt 0.125000 0.750000
vt 0.375000 0.250000
vt 0.375000 1.000000
vt 0.125000 0.750000
vt 0.875000 0.500000
vt 0.625000 0.000000
vt 0.875000 0.750000
vt 0.625000 0.500000
vt 0.375000 0.250000
vt 0.125000 0.750000
vt 0.625000 0.000000
vt 0.625000 0.750000
vt 0.875000 0.750000
vt 0.860437 0.500000
vt 0.375000 0.750000
vt 0.375000 0.500000
vt 0.375000 0.250000
vt 0.125000 0.500000
vt 0.375000 1.000000
vt 0.360437 0.750000
vt 0.375000 0.250000
vt 0.375000 0.500000
vt 0.125000 0.500000
vt 0.375000 0.750000
vt 0.625000 0.750000
vt 0.625000 0.250000
vt 0.875000 0.500000
vt 0.625000 0.750000
vt 0.639563 0.750000
vt 0.375000 0.500000
vt 0.625000 0.000000
vt 0.625000 0.250000
vt 0.875000 0.500000
vt 0.375000 0.500000
vt 0.625000 0.500000
vt 0.625000 0.750000
vt 0.375000 0.750000
vt 0.625000 0.750000
vt 0.375000 0.500000
vt 0.375000 0.985437
vt 0.139563 0.750000
vt 0.375000 0.750000
vt 0.625000 0.500000
vt 0.625000 0.985437
vt 0.860437 0.750000
vt 0.625000 0.500000
vt 0.625000 0.264563
vt 0.860437 0.500000
vt 0.625000 0.250000
vt 0.639563 0.500000
vt 0.125848 0.500000
vt 0.360437 0.735437
vt 0.375000 0.264563
vt 0.139563 0.500000
vt 0.375000 0.500000
vt 0.360437 0.500000
vt 0.860437 0.735437
vt 0.860486 0.735486
vt 0.125000 0.500000
vt 0.375000 0.000002
vt 0.125848 0.500000
vt 0.375000 0.014562
vt 0.139563 0.500000
vt 0.375000 0.250000
vt 0.139563 0.750000
vt 0.375000 0.750000
vt 0.375000 0.264563
vt 0.125000 0.750000
vt 0.375000 0.750000
vt 0.375000 0.985437
vt 0.125000 0.500000
vt 0.375000 0.000000
vt 0.375000 1.000000
vt 0.860437 0.750000
vt 0.625000 0.500000
vt 0.375000 0.264563
vt 0.860437 0.500000
vt 0.875000 0.750000
vt 0.625000 0.500000
vt 0.375000 0.985437
vt 0.860437 0.500000
vt 0.860437 0.749998
vt 0.860437 0.735437
s 0
f 1/1/1 5/11/1 13/31/1 10/22/1
f 23/52/2 21/48/2 19/44/2 25/58/2
f 19/44/3 21/48/3 18/43/3 17/42/3
f 20/45/4 17/42/4 18/43/4 22/49/4
f 19/44/5 17/42/5 20/46/5 25/59/5
f 10/23/5 24/56/5 29/66/5 28/64/5
f 32/73/5 1/2/5 10/23/5 28/64/5 33/76/5
f 29/66/5 24/56/5 25/59/5 20/46/5 31/70/5 30/68/5
f 18/43/6 21/48/6 23/53/6 26/62/6 22/50/6
f 34/79/6 22/50/6 36/87/6
f 37/88/7 26/62/7 23/53/7 13/32/7 5/12/7 35/83/7 4/10/7 8/19/7
f 27/63/8 37/88/8 8/19/8 4/10/8 35/83/8 34/79/8 36/87/8
f 22/50/9 26/62/9 37/88/9 36/87/9
f 36/87/10 37/88/10 27/63/10
f 3/7/2 7/16/2 15/36/2 11/26/2
f 11/27/3 15/37/3 23/54/3 25/60/3
f 35/84/4 5/13/4 1/3/4 32/74/4
f 31/71/4 20/47/4 22/51/4 34/80/4
f 13/33/1 7/17/1 3/8/1 10/24/1
f 11/28/5 25/61/5 24/57/5 10/25/5 3/9/5
f 23/55/6 15/38/6 7/18/6 13/34/6
f 30/69/11 6/14/11 2/4/11 33/77/11 28/65/11 29/67/11
f 34/81/3 16/39/3 14/35/3 6/14/3 30/69/3 31/72/3
f 14/35/4 16/40/4 12/30/4 9/20/4
f 33/78/1 2/5/1 9/20/1 12/29/1 35/85/1 32/75/1
f 6/15/5 14/35/5 9/21/5 2/6/5
f 35/86/6 12/30/6 16/41/6 34/82/6
