# Blender 3.4.1
# www.blender.org
mtllib X_Intersect.mtl
o Cube
v -1.000000 0.000002 0.030000
v 0.030000 0.000002 1.000000
v -1.000000 60.000000 0.030000
v 0.030000 60.000000 1.000000
v -1.000000 0.000002 -0.030000
v -0.030000 0.000002 1.000000
v -1.000000 60.000000 -0.030000
v -0.030000 60.000000 1.000000
v 1.000000 0.000002 0.030000
v 0.030000 0.000002 -1.000000
v 1.000000 60.000000 0.030000
v 0.030000 60.000000 -1.000000
v 1.000000 0.000002 -0.030000
v -0.030000 0.000002 -1.000000
v 1.000000 60.000000 -0.030000
v -0.030000 60.000000 -1.000000
v 0.030000 60.000000 -0.030000
v -0.030000 60.000000 -0.030000
v -0.030000 0.000002 -0.030000
v 0.030000 0.000002 -0.030000
v -0.030000 60.000000 0.030000
v 0.030000 60.000000 0.030000
v -0.030000 0.000002 0.030000
v 0.030000 0.000002 0.030000
v -0.030000 60.000000 0.000900
v -0.030000 0.000002 -0.000900
v 0.030000 60.000000 -0.000900
v 0.030000 0.000002 0.000900
vn -1.0000 -0.0000 -0.0000
vn -0.0000 -0.0000 -1.0000
vn 1.0000 -0.0000 -0.0000
vn -0.0000 -0.0000 1.0000
vn -0.0000 -1.0000 -0.0000
vn 0.0001 -1.0000 -0.0000
vn -0.0001 -1.0000 -0.0000
vn -0.0000 1.0000 -0.0000
vn -0.0001 1.0000 -0.0000
vn 0.0001 1.0000 -0.0000
vt 0.375000 0.000000
vt 0.375000 1.000000
vt 0.125000 0.750000
vt 0.375000 0.250000
vt 0.375000 1.000000
vt 0.125000 0.750000
vt 0.625000 0.000000
vt 0.625000 1.000000
vt 0.875000 0.750000
vt 0.625000 0.000000
vt 0.625000 0.750000
vt 0.875000 0.750000
vt 0.375000 0.250000
vt 0.125000 0.500000
vt 0.375000 0.250000
vt 0.375000 0.500000
vt 0.125000 0.500000
vt 0.625000 0.250000
vt 0.875000 0.500000
vt 0.625000 0.000000
vt 0.625000 0.250000
vt 0.875000 0.500000
vt 0.375000 0.750000
vt 0.375000 1.000000
vt 0.375000 0.750000
vt 0.625000 0.750000
vt 0.625000 0.500000
vt 0.625000 0.750000
vt 0.375000 0.500000
vt 0.375000 0.750000
vt 0.375000 0.500000
vt 0.625000 0.500000
vt 0.625000 0.250000
vt 0.625000 0.500000
vt 0.625000 0.378750
vt 0.746250 0.500000
vt 0.625000 0.750000
vt 0.746250 0.750000
vt 0.625000 0.371250
vt 0.753750 0.500000
vt 0.625000 0.250000
vt 0.746250 0.500000
vt 0.375000 0.371250
vt 0.246250 0.500000
vt 0.375000 0.500000
vt 0.253750 0.500000
vt 0.375000 0.378750
vt 0.253750 0.500000
vt 0.375000 1.000000
vt 0.253750 0.750000
vt 0.625000 0.878750
vt 0.753750 0.750000
vt 0.625000 0.250000
vt 0.753750 0.500000
vt 0.625000 0.871250
vt 0.746250 0.750000
vt 0.625000 0.750000
vt 0.753750 0.750000
vt 0.375000 0.878750
vt 0.246250 0.750000
vt 0.375000 0.500000
vt 0.246250 0.500000
vt 0.375000 0.871250
vt 0.253750 0.750000
vt 0.375000 1.000000
vt 0.246250 0.750000
vt 0.753750 0.628750
vt 0.246250 0.621250
vt 0.746250 0.621250
vt 0.253750 0.628750
s 0
f 1/1/1 3/7/1 7/18/1 5/13/1
f 17/35/2 15/32/2 13/29/2 20/47/2
f 5/13/2 7/18/2 18/39/2 19/43/2
f 13/29/3 15/32/3 11/26/3 9/23/3
f 3/8/4 1/2/4 23/59/4 21/51/4
f 24/63/4 9/23/4 11/26/4 22/55/4
f 13/29/5 9/23/5 24/64/5 28/70/5 20/48/5
f 1/3/5 5/14/5 19/44/5 26/68/5 23/60/5
f 19/44/6 20/48/6 28/70/6 26/68/6
f 24/64/7 23/60/7 26/68/7 28/70/7
f 25/67/8 18/40/8 7/19/8 3/9/8 21/52/8
f 27/69/8 22/56/8 11/26/8 15/32/8 17/36/8
f 27/69/9 17/36/9 18/40/9 25/67/9
f 25/67/10 21/52/10 22/56/10 27/69/10
f 2/4/4 4/10/4 8/20/4 6/15/4
f 18/41/1 16/33/1 14/31/1 19/45/1
f 6/16/1 8/21/1 21/53/1 23/61/1
f 14/30/2 16/34/2 12/27/2 10/25/2
f 4/11/3 2/5/3 24/65/3 22/57/3
f 20/49/3 10/24/3 12/28/3 17/37/3
f 14/31/5 10/25/5 20/50/5 19/46/5
f 2/6/5 6/17/5 23/62/5 24/66/5
f 21/54/8 8/22/8 4/12/8 22/58/8
f 17/38/8 12/28/8 16/34/8 18/42/8
